<?xml version="1.0" standalone="no"?><!DOCTYPE svg PUBLIC "-//W3C//DTD SVG 1.1//EN" "http://www.w3.org/Graphics/SVG/1.1/DTD/svg11.dtd"><svg t="1618365192687" class="icon" viewBox="0 0 1024 1024" version="1.1" xmlns="http://www.w3.org/2000/svg" p-id="3315" xmlns:xlink="http://www.w3.org/1999/xlink" width="200" height="200"><defs><style type="text/css"></style></defs><path d="M932.552 742.549c-10.78-4.265-17.654-17.546-30.8-15.67-33.448 4.751-35.622-13.687-34.83-40.326 1.74-59.094 0.079-118.253 0.75-177.39 0.317-30.785-14.06-42.966-44.114-42.708-83.207 0.727-166.452-0.912-249.658 1.026-25.746 0.61-33.29-7.683-29.262-31.124 0.194-1.065 0-2.187 0.04-3.273 0.592-30.565-9.831-69.148 4.937-89.442 14.253-19.63 55.169-5.215 84.304-6.245 25.516-0.888 39.695-12.614 40.012-37.516 0.786-61.305 0.078-122.637 0.317-183.96 0.078-15.487-10.546-25.301-17.652-37.044H367.442c-13.739 15.222-18.478 32.833-18.082 53.47 0.987 52.523-0.044 105.101 0.471 157.64 0.357 36.946 10.188 46.285 46.795 47.134 2.174 0.044 4.385-0.157 6.556 0.044 24.722 2.152 66.741-9.696 71.042 5.11 10.587 36.37 5.609 77.715 3.99 116.952-0.591 13.504-16.19 7.189-24.722 7.228-82.099 0.51-164.2 0.276-246.3 0.313-41.622 0.022-50.47 8.45-50.59 49.027-0.156 62.396-0.553 124.809 0.279 187.205 0.237 16.447-3.478 25.239-21.524 22.747-17.61-2.449-30.564 7.759-43.91 16.803v157.705c6.591 6.577 13.15 13.15 19.743 19.724h190.542c12.045-14.826 16.904-31.515 16.311-50.822-0.95-32.8 0.234-65.635-0.398-98.43-0.707-35.325-9.67-43.693-45.572-45.018-50.664-1.855-50.664-1.855-50.664-52.247 0-40.458 0.67-80.937-0.317-121.37-0.354-15.778 4.74-20.477 20.415-20.34 73.255 0.735 146.553 0.693 219.804 0.022 14.694-0.12 18.486 4.895 18.324 18.856-0.673 51.391-0.713 102.814 0 154.209 0.197 14.71-2.764 20.49-19.467 21.364-78.153 3.971-78.109 4.617-78.109 84.8 0 18.608 0.983 37.26-0.281 55.762-1.38 20.776 4.188 38.308 18.523 53.216h223.437c14.334-14.908 19.427-32.44 18.56-53.216-1.26-30.561-0.038-61.229-0.395-91.85-0.472-38.844-9.91-48.185-48.457-49.207-48.766-1.287-48.766-1.287-48.766-50.414 0-40.45 0.746-80.931-0.398-121.371-0.473-16.897 4.025-22.507 21.721-22.249 72.153 0.988 144.337 0.81 216.527 0.076 15.679-0.158 20.653 4.563 20.415 20.32-0.867 51.395-0.946 102.81 0 154.19 0.317 16.882-7.027 19.113-21.442 19.76-75.273 3.343-75.273 3.718-75.273 80.821 0 19.69 0.835 39.416-0.233 59.04-1.067 20.296 3.158 38.382 16.311 54.099h190.539c6.593-6.576 13.15-13.15 19.703-19.728l0.002-157.703z" fill="#1EC484" p-id="3316"></path></svg>